<mxfile host="65bd71144e" scale="1" border="10">
    <diagram id="-rriOPSDnHkLpZKLwRpb" name="Page-1">
        <mxGraphModel dx="3879" dy="2004" grid="1" gridSize="10" guides="1" tooltips="1" connect="1" arrows="1" fold="1" page="1" pageScale="1" pageWidth="850" pageHeight="1100" background="#FFFFFF" math="0" shadow="0">
            <root>
                <mxCell id="0"/>
                <mxCell id="1" parent="0"/>
                <mxCell id="420" value="(1, 1)" style="edgeStyle=none;html=1;endArrow=none;endFill=0;fontStyle=0" parent="1" target="437" edge="1">
                    <mxGeometry x="-0.4777" y="20" relative="1" as="geometry">
                        <mxPoint as="offset"/>
                        <mxPoint x="-2169.9623137919857" y="-760.2689255167943" as="sourcePoint"/>
                    </mxGeometry>
                </mxCell>
                <mxCell id="435" style="edgeStyle=none;html=1;exitX=1;exitY=0.25;exitDx=0;exitDy=0;endArrow=none;endFill=0;fontStyle=0" parent="1" source="437" target="446" edge="1">
                    <mxGeometry relative="1" as="geometry">
                        <mxPoint x="-2029.9900000000002" y="-739.72" as="targetPoint"/>
                        <Array as="points">
                            <mxPoint x="-2029.9900000000002" y="-709.72"/>
                        </Array>
                    </mxGeometry>
                </mxCell>
                <mxCell id="436" style="edgeStyle=none;html=1;exitX=1;exitY=0.75;exitDx=0;exitDy=0;endArrow=none;endFill=0;fontStyle=0" parent="1" source="437" target="453" edge="1">
                    <mxGeometry relative="1" as="geometry">
                        <Array as="points">
                            <mxPoint x="-2039.9900000000002" y="-689.72"/>
                        </Array>
                    </mxGeometry>
                </mxCell>
                <mxCell id="440" value="" style="endArrow=oval;html=1;fillStyle=auto;strokeWidth=1;startSize=6;endSize=6;fillColor=#000000;startArrow=none;startFill=0;endFill=0;exitX=0.117;exitY=1.013;exitDx=0;exitDy=0;exitPerimeter=0;fontStyle=0" parent="1" source="437" edge="1">
                    <mxGeometry width="50" height="50" relative="1" as="geometry">
                        <mxPoint x="-2212.4720980926427" y="-649.1499999999999" as="sourcePoint"/>
                        <mxPoint x="-2249.9900000000002" y="-669.72" as="targetPoint"/>
                    </mxGeometry>
                </mxCell>
                <mxCell id="441" value="LIS" style="edgeLabel;html=1;align=center;verticalAlign=middle;resizable=0;points=[];" parent="440" vertex="1" connectable="0">
                    <mxGeometry x="0.4791" y="1" relative="1" as="geometry">
                        <mxPoint x="-29" y="2" as="offset"/>
                    </mxGeometry>
                </mxCell>
                <mxCell id="443" value="" style="edgeStyle=none;shape=connector;rounded=1;fillStyle=auto;html=1;labelBackgroundColor=default;strokeColor=default;strokeWidth=1;fontFamily=Helvetica;fontSize=11;fontColor=default;endArrow=none;endFill=0;startSize=6;endSize=6;fillColor=#000000;exitX=1;exitY=0.5;exitDx=0;exitDy=0;entryX=0;entryY=0.5;entryDx=0;entryDy=0;fontStyle=0" parent="1" source="446" target="447" edge="1">
                    <mxGeometry relative="1" as="geometry"/>
                </mxCell>
                <mxCell id="444" value="(0, N)" style="edgeLabel;html=1;align=center;verticalAlign=middle;resizable=0;points=[];fontSize=11;fontFamily=Helvetica;fontColor=default;" parent="443" vertex="1" connectable="0">
                    <mxGeometry x="0.4262" y="1" relative="1" as="geometry">
                        <mxPoint x="-27" y="-12" as="offset"/>
                    </mxGeometry>
                </mxCell>
                <mxCell id="448" value="" style="endArrow=oval;html=1;fillStyle=auto;strokeWidth=1;startSize=6;endSize=6;fillColor=#000000;startArrow=none;startFill=0;endFill=1;fontStyle=0" parent="1" source="447" edge="1">
                    <mxGeometry width="50" height="50" relative="1" as="geometry">
                        <mxPoint x="-2177.4900000000002" y="-780.6400000000001" as="sourcePoint"/>
                        <mxPoint x="-1829.6400000000003" y="-760.1400000000001" as="targetPoint"/>
                    </mxGeometry>
                </mxCell>
                <mxCell id="449" value="nome" style="edgeLabel;html=1;align=center;verticalAlign=middle;resizable=0;points=[];" parent="448" vertex="1" connectable="0">
                    <mxGeometry x="0.4791" y="1" relative="1" as="geometry">
                        <mxPoint x="29" y="1" as="offset"/>
                    </mxGeometry>
                </mxCell>
                <mxCell id="450" value="" style="edgeStyle=none;shape=connector;rounded=1;fillStyle=auto;html=1;labelBackgroundColor=default;strokeColor=default;strokeWidth=1;fontFamily=Helvetica;fontSize=11;fontColor=default;endArrow=none;endFill=0;startSize=6;endSize=6;fillColor=#000000;exitX=1;exitY=0.5;exitDx=0;exitDy=0;entryX=0;entryY=0.5;entryDx=0;entryDy=0;fontStyle=0" parent="1" source="453" target="454" edge="1">
                    <mxGeometry relative="1" as="geometry"/>
                </mxCell>
                <mxCell id="451" value="(0, N)" style="edgeLabel;html=1;align=center;verticalAlign=middle;resizable=0;points=[];fontSize=11;fontFamily=Helvetica;fontColor=default;" parent="450" vertex="1" connectable="0">
                    <mxGeometry x="0.4262" y="1" relative="1" as="geometry">
                        <mxPoint x="-18" y="11" as="offset"/>
                    </mxGeometry>
                </mxCell>
                <mxCell id="455" value="" style="endArrow=oval;html=1;fillStyle=auto;strokeWidth=1;startSize=6;endSize=6;fillColor=#000000;startArrow=none;startFill=0;endFill=1;fontStyle=0" parent="1" source="454" edge="1">
                    <mxGeometry width="50" height="50" relative="1" as="geometry">
                        <mxPoint x="-2142.1900000000005" y="-420.28999999999985" as="sourcePoint"/>
                        <mxPoint x="-1829.6400000000003" y="-640.1400000000001" as="targetPoint"/>
                        <Array as="points"/>
                    </mxGeometry>
                </mxCell>
                <mxCell id="456" value="nome" style="edgeLabel;html=1;align=center;verticalAlign=middle;resizable=0;points=[];" parent="455" vertex="1" connectable="0">
                    <mxGeometry x="0.4791" y="1" relative="1" as="geometry">
                        <mxPoint x="29" y="1" as="offset"/>
                    </mxGeometry>
                </mxCell>
                <mxCell id="457" value="" style="endArrow=oval;html=1;fillStyle=auto;strokeWidth=1;startSize=6;endSize=6;fillColor=#000000;startArrow=none;startFill=0;endFill=0;fontStyle=0" parent="1" source="461" edge="1">
                    <mxGeometry width="50" height="50" relative="1" as="geometry">
                        <mxPoint x="-2295" y="-883.7133333333336" as="sourcePoint"/>
                        <mxPoint x="-2289.06" y="-590.3700000000001" as="targetPoint"/>
                    </mxGeometry>
                </mxCell>
                <mxCell id="458" value="data&lt;br&gt;inizio" style="edgeLabel;html=1;align=center;verticalAlign=middle;resizable=0;points=[];" parent="457" vertex="1" connectable="0">
                    <mxGeometry x="0.4791" y="1" relative="1" as="geometry">
                        <mxPoint x="-3" y="-28" as="offset"/>
                    </mxGeometry>
                </mxCell>
                <mxCell id="459" style="edgeStyle=elbowEdgeStyle;html=1;exitX=0.5;exitY=1;exitDx=0;exitDy=0;entryX=0.5;entryY=0;entryDx=0;entryDy=0;endArrow=none;endFill=0;elbow=vertical;rounded=0;jumpStyle=arc;fontStyle=0" parent="1" target="461" edge="1">
                    <mxGeometry relative="1" as="geometry">
                        <mxPoint x="-2169.6" y="-680.1499999999999" as="sourcePoint"/>
                        <mxPoint x="-2229.61" y="-557.63" as="targetPoint"/>
                        <Array as="points">
                            <mxPoint x="-2209.06" y="-600.37"/>
                        </Array>
                    </mxGeometry>
                </mxCell>
                <mxCell id="460" style="edgeStyle=elbowEdgeStyle;elbow=vertical;html=1;exitX=0.5;exitY=1;exitDx=0;exitDy=0;entryX=0.5;entryY=0;entryDx=0;entryDy=0;endArrow=none;endFill=0;rounded=0;jumpStyle=arc;fontStyle=0" parent="1" target="463" edge="1">
                    <mxGeometry relative="1" as="geometry">
                        <mxPoint x="-2169.6" y="-680.1499999999999" as="sourcePoint"/>
                        <Array as="points">
                            <mxPoint x="-2119.06" y="-600.37"/>
                        </Array>
                    </mxGeometry>
                </mxCell>
                <mxCell id="462" value="" style="edgeStyle=none;html=1;endArrow=none;endFill=0;fontStyle=0" parent="1" source="463" target="478" edge="1">
                    <mxGeometry relative="1" as="geometry"/>
                </mxCell>
                <mxCell id="466" value="" style="endArrow=oval;html=1;fillStyle=auto;strokeWidth=1;startSize=6;endSize=6;fillColor=#000000;startArrow=none;startFill=0;endFill=0;exitX=0.25;exitY=1;exitDx=0;exitDy=0;fontStyle=0" parent="1" source="473" edge="1">
                    <mxGeometry width="50" height="50" relative="1" as="geometry">
                        <mxPoint x="-2079.5202458605117" y="-509.62999999999977" as="sourcePoint"/>
                        <mxPoint x="-2209.06" y="-500.3700000000001" as="targetPoint"/>
                    </mxGeometry>
                </mxCell>
                <mxCell id="467" value="minutaggio" style="edgeLabel;html=1;align=center;verticalAlign=middle;resizable=0;points=[];" parent="466" vertex="1" connectable="0">
                    <mxGeometry x="0.4791" y="1" relative="1" as="geometry">
                        <mxPoint y="16" as="offset"/>
                    </mxGeometry>
                </mxCell>
                <mxCell id="468" value="" style="endArrow=oval;html=1;fillStyle=auto;strokeWidth=1;startSize=6;endSize=6;fillColor=#000000;startArrow=none;startFill=0;endFill=0;fontStyle=0" parent="1" source="473" edge="1">
                    <mxGeometry width="50" height="50" relative="1" as="geometry">
                        <mxPoint x="-2069.5202458605117" y="-499.62999999999977" as="sourcePoint"/>
                        <mxPoint x="-2129.06" y="-580.3700000000001" as="targetPoint"/>
                    </mxGeometry>
                </mxCell>
                <mxCell id="469" value="durata" style="edgeLabel;html=1;align=center;verticalAlign=middle;resizable=0;points=[];" parent="468" vertex="1" connectable="0">
                    <mxGeometry x="0.4791" y="1" relative="1" as="geometry">
                        <mxPoint x="30" y="-5" as="offset"/>
                    </mxGeometry>
                </mxCell>
                <mxCell id="472" style="edgeStyle=none;jumpStyle=arc;html=1;exitX=0.5;exitY=0;exitDx=0;exitDy=0;entryX=1;entryY=0.5;entryDx=0;entryDy=0;entryPerimeter=0;endArrow=none;endFill=0;fontStyle=0" parent="1" source="473" target="464" edge="1">
                    <mxGeometry relative="1" as="geometry"/>
                </mxCell>
                <mxCell id="474" value="" style="endArrow=oval;html=1;fillStyle=auto;strokeWidth=1;startSize=6;endSize=6;fillColor=#000000;startArrow=none;startFill=0;endFill=0;fontStyle=0" parent="1" source="461" edge="1">
                    <mxGeometry width="50" height="50" relative="1" as="geometry">
                        <mxPoint x="-2267.2704769412694" y="-549.63" as="sourcePoint"/>
                        <mxPoint x="-2309.0600000000004" y="-580.3700000000001" as="targetPoint"/>
                    </mxGeometry>
                </mxCell>
                <mxCell id="475" value="data&lt;br&gt;fine" style="edgeLabel;html=1;align=center;verticalAlign=middle;resizable=0;points=[];" parent="474" vertex="1" connectable="0">
                    <mxGeometry x="0.4791" y="1" relative="1" as="geometry">
                        <mxPoint x="-25" y="-6" as="offset"/>
                    </mxGeometry>
                </mxCell>
                <mxCell id="477" value="(1, 1)" style="edgeStyle=none;html=1;endArrow=none;endFill=0;entryX=0.5;entryY=1;entryDx=0;entryDy=0;fontStyle=0" parent="1" source="478" edge="1">
                    <mxGeometry x="-0.768" y="10" relative="1" as="geometry">
                        <mxPoint as="offset"/>
                        <Array as="points">
                            <mxPoint x="-2170.4100000000003" y="-459.51"/>
                        </Array>
                        <mxPoint x="-2170.9500000000003" y="-519.6299999999999" as="targetPoint"/>
                    </mxGeometry>
                </mxCell>
                <mxCell id="481" style="edgeStyle=none;html=1;exitX=1;exitY=0.5;exitDx=0;exitDy=0;endArrow=none;endFill=0;fontStyle=0" parent="1" source="483" target="463" edge="1">
                    <mxGeometry relative="1" as="geometry">
                        <Array as="points">
                            <mxPoint x="-1989.9900000000002" y="-379.72"/>
                            <mxPoint x="-1989.9900000000002" y="-539.72"/>
                        </Array>
                    </mxGeometry>
                </mxCell>
                <mxCell id="482" style="edgeStyle=none;html=1;exitX=0;exitY=0.5;exitDx=0;exitDy=0;entryX=0.75;entryY=1;entryDx=0;entryDy=0;endArrow=none;endFill=0;fontStyle=0" parent="1" source="483" target="461" edge="1">
                    <mxGeometry relative="1" as="geometry">
                        <Array as="points">
                            <mxPoint x="-2149.9900000000002" y="-379.72"/>
                            <mxPoint x="-2249.9900000000002" y="-499.72"/>
                        </Array>
                    </mxGeometry>
                </mxCell>
                <mxCell id="484" value="(0, N)" style="edgeStyle=none;html=1;endArrow=none;endFill=0;exitX=0.5;exitY=1;exitDx=0;exitDy=0;fontStyle=0" parent="1" target="487" edge="1">
                    <mxGeometry x="0.6553" y="-20" relative="1" as="geometry">
                        <mxPoint as="offset"/>
                        <mxPoint x="-2270.5800000000004" y="-519.6299999999999" as="sourcePoint"/>
                    </mxGeometry>
                </mxCell>
                <mxCell id="486" value="(1, 1)" style="edgeStyle=none;html=1;endArrow=none;endFill=0;fontStyle=0" parent="1" source="487" target="485" edge="1">
                    <mxGeometry x="-0.4543" y="-19" relative="1" as="geometry">
                        <mxPoint as="offset"/>
                    </mxGeometry>
                </mxCell>
                <mxCell id="492" value="" style="endArrow=none;html=1;strokeColor=#000000;entryX=0;entryY=1;entryDx=0;entryDy=0;fontStyle=0" parent="1" target="493" edge="1">
                    <mxGeometry width="50" height="50" relative="1" as="geometry">
                        <mxPoint x="-2051.8" y="-560.1099999999999" as="sourcePoint"/>
                        <mxPoint x="-2029.9900000000002" y="-579.72" as="targetPoint"/>
                    </mxGeometry>
                </mxCell>
                <mxCell id="495" value="" style="endArrow=none;html=1;strokeColor=#000000;fontSize=11;fontColor=#FF0000;exitX=0;exitY=0.25;exitDx=0;exitDy=0;entryX=1;entryY=1;entryDx=0;entryDy=0;fontStyle=0" parent="1" source="485" target="496" edge="1">
                    <mxGeometry width="50" height="50" relative="1" as="geometry">
                        <mxPoint x="-2359.6000000000004" y="-339.85" as="sourcePoint"/>
                        <mxPoint x="-2339.9900000000002" y="-389.72" as="targetPoint"/>
                    </mxGeometry>
                </mxCell>
                <mxCell id="497" value="" style="endArrow=none;html=1;strokeColor=#000000;fontSize=11;fontColor=#FF0000;fontStyle=0" parent="1" edge="1">
                    <mxGeometry width="50" height="50" relative="1" as="geometry">
                        <mxPoint x="-2289.9900000000002" y="-319.72" as="sourcePoint"/>
                        <mxPoint x="-2289.9900000000002" y="-339.72" as="targetPoint"/>
                    </mxGeometry>
                </mxCell>
                <mxCell id="501" value="" style="endArrow=none;html=1;strokeColor=#000000;fontSize=10;fontColor=#FF0000;fontStyle=0" parent="1" edge="1">
                    <mxGeometry width="50" height="50" relative="1" as="geometry">
                        <mxPoint x="-2329.9900000000002" y="-359.72" as="sourcePoint"/>
                        <mxPoint x="-2249.9900000000002" y="-389.72" as="targetPoint"/>
                        <Array as="points">
                            <mxPoint x="-2329.9900000000002" y="-389.72"/>
                        </Array>
                    </mxGeometry>
                </mxCell>
                <mxCell id="517" value="" style="edgeStyle=none;html=1;endArrow=none;endFill=0;fontStyle=0" parent="1" target="461" edge="1">
                    <mxGeometry x="-0.4777" y="20" relative="1" as="geometry">
                        <mxPoint as="offset"/>
                        <mxPoint x="-2350" y="-540" as="sourcePoint"/>
                        <mxPoint x="-2160.1075814708456" y="-710.15" as="targetPoint"/>
                    </mxGeometry>
                </mxCell>
                <mxCell id="437" value="CONTENUTO&lt;br&gt;MULTIMEDIALE" style="rounded=0;whiteSpace=wrap;html=1;" parent="1" vertex="1">
                    <mxGeometry x="-2230.1800000000003" y="-720.15" width="120" height="40" as="geometry"/>
                </mxCell>
                <mxCell id="445" value="(1, 1)" style="edgeLabel;html=1;align=center;verticalAlign=middle;resizable=0;points=[];" parent="1" vertex="1" connectable="0">
                    <mxGeometry x="-2009.7363903913756" y="-729.96082470871" as="geometry"/>
                </mxCell>
                <mxCell id="446" value="appartenenza" style="rhombus;whiteSpace=wrap;html=1;" parent="1" vertex="1">
                    <mxGeometry x="-2089.9900000000002" y="-780.3800000000001" width="120" height="40" as="geometry"/>
                </mxCell>
                <mxCell id="447" value="CATEGORIA" style="rounded=0;whiteSpace=wrap;html=1;" parent="1" vertex="1">
                    <mxGeometry x="-1929.9900000000002" y="-780.3800000000001" width="80" height="40" as="geometry"/>
                </mxCell>
                <mxCell id="452" value="(0, N)" style="edgeLabel;html=1;align=center;verticalAlign=middle;resizable=0;points=[];" parent="1" vertex="1" connectable="0">
                    <mxGeometry x="-2010.7963902477313" y="-668.9606934179959" as="geometry"/>
                </mxCell>
                <mxCell id="453" value="&lt;font style=&quot;font-size: 12px;&quot;&gt;associazione&lt;/font&gt;" style="rhombus;whiteSpace=wrap;html=1;" parent="1" vertex="1">
                    <mxGeometry x="-2100" y="-659.92" width="120" height="40.2" as="geometry"/>
                </mxCell>
                <mxCell id="454" value="HASHTAG" style="rounded=0;whiteSpace=wrap;html=1;" parent="1" vertex="1">
                    <mxGeometry x="-1929.69" y="-660.43" width="80" height="40" as="geometry"/>
                </mxCell>
                <mxCell id="461" value="LIVE" style="whiteSpace=wrap;html=1;" parent="1" vertex="1">
                    <mxGeometry x="-2309.6000000000004" y="-559.63" width="80" height="40" as="geometry"/>
                </mxCell>
                <mxCell id="463" value="VIDEO" style="whiteSpace=wrap;html=1;" parent="1" vertex="1">
                    <mxGeometry x="-2109.6" y="-559.63" width="80" height="40" as="geometry"/>
                </mxCell>
                <mxCell id="464" value="" style="shape=singleArrow;whiteSpace=wrap;html=1;arrowWidth=0.4;arrowSize=0.4;rotation=-90;fillColor=#000000;" parent="1" vertex="1">
                    <mxGeometry x="-2209.08" y="-659.64" width="78.91" height="39.32" as="geometry"/>
                </mxCell>
                <mxCell id="465" value="(e)" style="text;html=1;align=center;verticalAlign=middle;resizable=0;points=[];autosize=1;strokeColor=none;fillColor=none;" parent="1" vertex="1">
                    <mxGeometry x="-2149.6" y="-630.11" width="40" height="30" as="geometry"/>
                </mxCell>
                <mxCell id="473" value="CLIP" style="whiteSpace=wrap;html=1;" parent="1" vertex="1">
                    <mxGeometry x="-2209.6" y="-560.1099999999998" width="80" height="39.62" as="geometry"/>
                </mxCell>
                <mxCell id="476" value="(0, N)" style="edgeLabel;html=1;align=center;verticalAlign=middle;resizable=0;points=[];fontSize=11;fontFamily=Helvetica;fontColor=default;" parent="1" vertex="1" connectable="0">
                    <mxGeometry x="-2051.8" y="-488.7699999999995" as="geometry"/>
                </mxCell>
                <mxCell id="478" value="scomposizione" style="rhombus;whiteSpace=wrap;html=1;" parent="1" vertex="1">
                    <mxGeometry x="-2130.8" y="-478.14999999999986" width="120" height="40" as="geometry"/>
                </mxCell>
                <mxCell id="479" value="(0,1)" style="edgeLabel;html=1;align=center;verticalAlign=middle;resizable=0;points=[];" parent="1" vertex="1" connectable="0">
                    <mxGeometry x="-2139.1910213351566" y="-389.84535229791675" as="geometry"/>
                </mxCell>
                <mxCell id="480" value="(1,1)" style="edgeLabel;html=1;align=center;verticalAlign=middle;resizable=0;points=[];" parent="1" vertex="1" connectable="0">
                    <mxGeometry x="-2009.7376067585" y="-389.8465635923235" as="geometry"/>
                </mxCell>
                <mxCell id="483" value="riferimento" style="rhombus;whiteSpace=wrap;html=1;" parent="1" vertex="1">
                    <mxGeometry x="-2129.7400000000002" y="-399.3899999999999" width="120" height="40" as="geometry"/>
                </mxCell>
                <mxCell id="485" value="AFFLUENZA" style="whiteSpace=wrap;html=1;" parent="1" vertex="1">
                    <mxGeometry x="-2310.1900000000005" y="-379.39" width="80" height="39.62" as="geometry"/>
                </mxCell>
                <mxCell id="487" value="media&lt;br&gt;spettatori" style="rhombus;whiteSpace=wrap;html=1;" parent="1" vertex="1">
                    <mxGeometry x="-2319.9100000000003" y="-469.72" width="100.61" height="60" as="geometry"/>
                </mxCell>
                <mxCell id="493" value="" style="ellipse;whiteSpace=wrap;html=1;aspect=fixed;strokeColor=#000000;" parent="1" vertex="1">
                    <mxGeometry x="-2031.1400000000003" y="-586.68" width="5.67" height="5.67" as="geometry"/>
                </mxCell>
                <mxCell id="494" value="&lt;font style=&quot;font-size: 11px;&quot;&gt;durata&lt;/font&gt;" style="text;html=1;align=center;verticalAlign=middle;resizable=0;points=[];autosize=1;strokeColor=none;fillColor=none;" parent="1" vertex="1">
                    <mxGeometry x="-2029.6" y="-600.11" width="50" height="30" as="geometry"/>
                </mxCell>
                <mxCell id="496" value="" style="ellipse;whiteSpace=wrap;html=1;aspect=fixed;strokeColor=#000000;fontSize=11;fontColor=#FF0000;" parent="1" vertex="1">
                    <mxGeometry x="-2343.2600000000007" y="-394.98" width="5.13" height="5.13" as="geometry"/>
                </mxCell>
                <mxCell id="498" value="" style="ellipse;whiteSpace=wrap;html=1;aspect=fixed;strokeColor=#000000;fontSize=11;fontColor=#FF0000;" parent="1" vertex="1">
                    <mxGeometry x="-2292.86" y="-319.46000000000004" width="5.74" height="5.74" as="geometry"/>
                </mxCell>
                <mxCell id="499" value="&lt;font color=&quot;#000000&quot; style=&quot;font-size: 11px;&quot;&gt;numero &lt;br&gt;spettatori&lt;/font&gt;" style="text;html=1;align=center;verticalAlign=middle;resizable=0;points=[];autosize=1;strokeColor=none;fillColor=none;fontSize=11;fontColor=#FF0000;" parent="1" vertex="1">
                    <mxGeometry x="-2324.9100000000003" y="-319.46000000000004" width="70" height="40" as="geometry"/>
                </mxCell>
                <mxCell id="500" value="&lt;font style=&quot;font-size: 11px;&quot; color=&quot;#000000&quot;&gt;timestamp&lt;/font&gt;" style="text;html=1;align=center;verticalAlign=middle;resizable=0;points=[];autosize=1;strokeColor=none;fillColor=none;fontSize=10;fontColor=#FF0000;" parent="1" vertex="1">
                    <mxGeometry x="-2408.13" y="-409.3900000000001" width="70" height="30" as="geometry"/>
                </mxCell>
                <mxCell id="502" value="" style="shape=waypoint;fillStyle=solid;size=6;pointerEvents=1;points=[];fillColor=none;resizable=0;rotatable=0;perimeter=centerPerimeter;snapToPoint=1;strokeColor=#000000;fontSize=10;fontColor=#FF0000;" parent="1" vertex="1">
                    <mxGeometry x="-2339.9100000000003" y="-369.58000000000004" width="20" height="20" as="geometry"/>
                </mxCell>
                <mxCell id="519" value="CANALE" style="rounded=0;whiteSpace=wrap;html=1;" parent="1" vertex="1">
                    <mxGeometry x="-2210.17" y="-880" width="80" height="40" as="geometry"/>
                </mxCell>
                <mxCell id="523" value="" style="edgeStyle=none;shape=connector;rounded=1;fillStyle=auto;html=1;labelBackgroundColor=default;strokeColor=default;strokeWidth=1;fontFamily=Helvetica;fontSize=11;fontColor=default;endArrow=none;startSize=6;endSize=6;fillColor=#000000;entryX=0.5;entryY=0;entryDx=0;entryDy=0;exitX=0.5;exitY=1;exitDx=0;exitDy=0;" parent="1" target="525" edge="1">
                    <mxGeometry relative="1" as="geometry">
                        <mxPoint x="-2169.3" y="-840" as="sourcePoint"/>
                        <mxPoint x="-2167.95" y="-780" as="targetPoint"/>
                    </mxGeometry>
                </mxCell>
                <mxCell id="524" value="(0, N)" style="edgeLabel;html=1;align=center;verticalAlign=middle;resizable=0;points=[];fontSize=11;fontFamily=Helvetica;fontColor=default;" parent="523" vertex="1" connectable="0">
                    <mxGeometry x="-0.3032" relative="1" as="geometry">
                        <mxPoint x="-20" y="16" as="offset"/>
                    </mxGeometry>
                </mxCell>
                <mxCell id="525" value="contenitore" style="rhombus;whiteSpace=wrap;html=1;" parent="1" vertex="1">
                    <mxGeometry x="-2219.3" y="-800.24" width="100" height="40" as="geometry"/>
                </mxCell>
                <mxCell id="540" style="edgeStyle=none;html=1;exitX=0.5;exitY=1;exitDx=0;exitDy=0;entryX=0;entryY=0.75;entryDx=0;entryDy=0;endArrow=none;endFill=0;" parent="1" source="542" edge="1">
                    <mxGeometry relative="1" as="geometry">
                        <mxPoint x="-2230.19" y="-690.4299999999998" as="targetPoint"/>
                        <Array as="points">
                            <mxPoint x="-2450" y="-690"/>
                        </Array>
                    </mxGeometry>
                </mxCell>
                <mxCell id="541" value="(0, N)" style="edgeLabel;html=1;align=center;verticalAlign=middle;resizable=0;points=[];fontSize=11;fontFamily=Helvetica;fontColor=default;" parent="540" vertex="1" connectable="0">
                    <mxGeometry x="-0.1866" y="4" relative="1" as="geometry">
                        <mxPoint x="-27" y="-56" as="offset"/>
                    </mxGeometry>
                </mxCell>
                <mxCell id="542" value="visita" style="rhombus;whiteSpace=wrap;html=1;" parent="1" vertex="1">
                    <mxGeometry x="-2489.9999999999995" y="-800.52" width="80" height="40" as="geometry"/>
                </mxCell>
                <mxCell id="547" style="edgeStyle=none;jumpStyle=arc;html=1;entryX=0;entryY=0.25;entryDx=0;entryDy=0;endArrow=none;endFill=0;exitX=0.5;exitY=1;exitDx=0;exitDy=0;" parent="1" source="549" edge="1">
                    <mxGeometry relative="1" as="geometry">
                        <Array as="points">
                            <mxPoint x="-2360" y="-710"/>
                        </Array>
                        <mxPoint x="-2230.19" y="-710.4299999999998" as="targetPoint"/>
                        <mxPoint x="-2360" y="-810" as="sourcePoint"/>
                    </mxGeometry>
                </mxCell>
                <mxCell id="548" value="(0, N)" style="edgeLabel;html=1;align=center;verticalAlign=middle;resizable=0;points=[];" parent="547" vertex="1" connectable="0">
                    <mxGeometry x="-0.8996" relative="1" as="geometry">
                        <mxPoint x="22" y="1" as="offset"/>
                    </mxGeometry>
                </mxCell>
                <mxCell id="549" value="voto" style="rhombus;whiteSpace=wrap;html=1;" parent="1" vertex="1">
                    <mxGeometry x="-2400" y="-850" width="80" height="40" as="geometry"/>
                </mxCell>
                <mxCell id="550" value="" style="endArrow=oval;html=1;fillStyle=auto;strokeWidth=1;startSize=6;endSize=6;fillColor=#000000;startArrow=none;startFill=0;endFill=0;" parent="1" source="549" edge="1">
                    <mxGeometry width="50" height="50" relative="1" as="geometry">
                        <mxPoint x="-2230" y="-621.8366122312948" as="sourcePoint"/>
                        <mxPoint x="-2299.9900000000002" y="-830" as="targetPoint"/>
                    </mxGeometry>
                </mxCell>
                <mxCell id="551" value="likert" style="edgeLabel;html=1;align=center;verticalAlign=middle;resizable=0;points=[];" parent="550" vertex="1" connectable="0">
                    <mxGeometry x="0.4791" y="1" relative="1" as="geometry">
                        <mxPoint x="15" y="13" as="offset"/>
                    </mxGeometry>
                </mxCell>
                <mxCell id="554" value="" style="endArrow=none;html=1;exitX=0.5;exitY=0;exitDx=0;exitDy=0;" parent="1" source="542" edge="1">
                    <mxGeometry width="50" height="50" relative="1" as="geometry">
                        <mxPoint x="-2400" y="-790" as="sourcePoint"/>
                        <mxPoint x="-2450" y="-880" as="targetPoint"/>
                    </mxGeometry>
                </mxCell>
                <mxCell id="555" value="" style="endArrow=none;html=1;exitX=0.5;exitY=0;exitDx=0;exitDy=0;" parent="1" source="549" edge="1">
                    <mxGeometry width="50" height="50" relative="1" as="geometry">
                        <mxPoint x="-2400" y="-790" as="sourcePoint"/>
                        <mxPoint x="-2360" y="-880" as="targetPoint"/>
                    </mxGeometry>
                </mxCell>
                <mxCell id="570" value="" style="endArrow=oval;html=1;fillStyle=auto;strokeWidth=1;startSize=6;endSize=6;fillColor=#000000;startArrow=none;startFill=0;endFill=0;exitX=0.109;exitY=0.001;exitDx=0;exitDy=0;exitPerimeter=0;" parent="1" edge="1">
                    <mxGeometry width="50" height="50" relative="1" as="geometry">
                        <mxPoint x="-2217.62" y="-720.2299999999998" as="sourcePoint"/>
                        <mxPoint x="-2239.51" y="-735.8399999999999" as="targetPoint"/>
                    </mxGeometry>
                </mxCell>
                <mxCell id="571" value="titolo" style="edgeLabel;html=1;align=center;verticalAlign=middle;resizable=0;points=[];" parent="570" vertex="1" connectable="0">
                    <mxGeometry x="0.4791" y="1" relative="1" as="geometry">
                        <mxPoint x="-23" y="-8" as="offset"/>
                    </mxGeometry>
                </mxCell>
                <mxCell id="572" style="edgeStyle=none;shape=connector;rounded=1;fillStyle=auto;html=1;labelBackgroundColor=default;strokeColor=default;strokeWidth=1;fontFamily=Helvetica;fontSize=11;fontColor=default;endArrow=none;endFill=0;startSize=6;endSize=6;fillColor=#000000;startArrow=oval;startFill=0;" parent="1" edge="1">
                    <mxGeometry relative="1" as="geometry">
                        <mxPoint x="-2199.506543937163" y="-720.2699999999998" as="targetPoint"/>
                        <mxPoint x="-2208.51" y="-743.8399999999999" as="sourcePoint"/>
                    </mxGeometry>
                </mxCell>
                <mxCell id="573" value="premium" style="edgeLabel;html=1;align=center;verticalAlign=middle;resizable=0;points=[];fontSize=11;fontFamily=Helvetica;fontColor=default;" parent="572" vertex="1" connectable="0">
                    <mxGeometry x="-0.2572" y="1" relative="1" as="geometry">
                        <mxPoint x="-10" y="-20" as="offset"/>
                    </mxGeometry>
                </mxCell>
                <mxCell id="574" value="&lt;font style=&quot;font-size: 11px;&quot;&gt;URL&lt;/font&gt;" style="text;html=1;align=center;verticalAlign=middle;resizable=0;points=[];autosize=1;strokeColor=none;fillColor=none;" parent="1" vertex="1">
                    <mxGeometry x="-2131.12" y="-761.3499999999999" width="50" height="30" as="geometry"/>
                </mxCell>
                <mxCell id="575" value="" style="endArrow=oval;html=1;fillStyle=auto;strokeWidth=1;startSize=6;endSize=6;fillColor=#000000;startArrow=none;startFill=0;endFill=1;exitX=0.821;exitY=0.003;exitDx=0;exitDy=0;exitPerimeter=0;" parent="1" edge="1">
                    <mxGeometry width="50" height="50" relative="1" as="geometry">
                        <mxPoint x="-2132.1800000000003" y="-720.1499999999999" as="sourcePoint"/>
                        <mxPoint x="-2120.51" y="-739.8399999999999" as="targetPoint"/>
                    </mxGeometry>
                </mxCell>
            </root>
        </mxGraphModel>
    </diagram>
</mxfile>